<?xml version="1.0" encoding="utf-8"?>
<!-- Generator: Adobe Illustrator 25.2.1, SVG Export Plug-In . SVG Version: 6.00 Build 0)  -->
<svg version="1.1" id="Camada_1" xmlns="http://www.w3.org/2000/svg" xmlns:xlink="http://www.w3.org/1999/xlink" x="0px" y="0px"
	 viewBox="0 0 464.9 147.1" style="enable-background:new 0 0 464.9 147.1;" xml:space="preserve">
<style type="text/css">
	.st0{fill:#FFFFFF;}
	.st1{font-family:'Roboto-Bold';}
	.st2{font-size:20.64px;}
	.st3{letter-spacing:-1;}
</style>
<g id="Camada_2_1_">
	<g id="Camada_1-2">
		<path class="st0" d="M41,100.3c-4.8,0-9.2,0.1-13.7,0c-2.8,0-5.6-0.2-8.3-0.6C8.1,97.6,0.2,88,0.2,76.9C0,58.8-0.1,40.8,0.3,22.7
			C0.5,10.7,10.4-0.1,24.5,0c28.8,0.2,57.6,0,86.4,0.1c7.2,0,14.5-0.2,21.8,0.3c10.7,0.7,19.7,9.7,20.6,20.4
			c0.4,4.3,0.1,8.7,0.1,13.3H151c-12.4,0-24.9,0-37.3,0c-11.2,0-19.6,8.3-19.6,19.6c0,13.7,0,27.5,0,41.2c0,1.7,0.2,3.4,0.2,5.3
			h-2.5c-6.8,0-13.6-0.1-20.4,0.1c-1.2,0.1-2.3,0.6-3.1,1.4c-7.8,9-15.4,18.1-23.2,27.1c-0.7,0.8-2,1.1-3,1.7
			c-0.4-1.1-1.1-2.2-1.2-3.2c-0.1-8,0-15.9,0-23.9L41,100.3z"/>
		<path class="st0" d="M186.9,125c0,1.2,0,2,0,2.8c0,5.7,0,11.4,0,17.2c-0.1,0.8-0.4,1.5-0.8,2.2c-0.7-0.3-1.4-0.7-2-1.1
			c-5.5-6.4-10.9-12.8-16.3-19.3c-0.9-1.2-2.3-1.8-3.7-1.7c-13.7,0.1-27.3,0-41,0c-10.7,0-18.1-7.3-18.1-18c0-15.5,0-31.1,0-46.6
			c-0.1-9.4,7.4-17.2,16.8-17.3c0.1,0,0.2,0,0.2,0c30.9-0.1,61.8-0.1,92.7,0c9.6,0,17,7.6,17,17.5c0.1,15.8,0.1,31.5,0,47.3
			c0,9.5-7.6,17.2-17.1,17.2c-0.1,0-0.3,0-0.4,0c-8.1,0-16.2,0-24.3,0H186.9z"/>
		<path class="st0" d="M447.6,57.4c3,2.5,6,4.5,8.5,7c5,5,8.1,11.7,8.6,18.8c0.6,5.4-0.1,10.8-2.3,15.8
			c-3.4,8.3-10.2,14.7-18.6,17.7c-4.3,1.5-8.8,2.2-13.4,2.1c-9.2-0.1-18.5,0-27.7,0c-2.4,0-2.5-0.1-2.5-2.5c0-37.7,0-75.3,0-113
			c0-1.6,0.3-2.5,2.2-2.5c8.7,0.1,17.5-0.1,26.3,0.3c9.7,0.4,17.6,4.9,23.4,12.6c7.2,9.6,8.2,20.2,4.2,31.4c-1.4,3.8-3.7,7.2-6.5,10
			C449,55.9,448.3,56.7,447.6,57.4z M423.8,65.2c-3.5,0-7,0.1-10.5,0c-1.6-0.1-2.3,0.4-2.3,2.2c0.1,12.7,0.1,25.5,0,38.2
			c0,1.6,0.4,2.2,2.1,2.2c6.7-0.1,13.4,0.1,20.1-0.1c2.5-0.1,5.1-0.5,7.4-1.4c10.9-4.2,16.3-16.3,12.1-27.2
			c-0.1-0.3-0.2-0.6-0.3-0.8c-3.7-8.3-10.2-12.6-19.2-13C430.1,65.1,427,65.2,423.8,65.2z M411.1,32.9c0,6.5,0,12.9,0,19.4
			c0,1.4,0.4,2,1.9,2c5-0.1,10,0.2,14.9-0.1c5.5-0.1,10.6-2.5,14.2-6.7c6.1-7.2,7.6-15.5,3.3-24.2c-2.8-6.3-8.8-10.6-15.7-11.3
			c-5.4-0.6-10.9-0.4-16.3-0.5c-2.2,0-2.3,0.1-2.3,2.3C411.1,20.2,411.1,26.6,411.1,32.9z"/>
		<path class="st0" d="M248.9,59.9V3.6c0-2.9,0.1-3,3-3c9.2,0,18.5,0,27.7,0c5.4,0,10.7,1.1,15.6,3.3c5.7,2.7,10.4,7.1,13.5,12.6
			c3,5.2,4.5,11.2,4.4,17.3c0,17.3,0,34.6,0,51.9c0,9.7-3.3,17.9-10.5,24.4c-6.2,5.7-14.3,8.9-22.8,8.8c-9.3,0-18.6,0-27.9,0
			c-3.1,0-3.1,0-3.1-3L248.9,59.9z M259.6,59.7c0,15.3,0,30.7,0,46c0,1.8,0.6,2.3,2.2,2.3c6.8-0.1,13.6,0,20.4-0.1
			c1.7,0,3.3-0.3,4.9-0.7c9.2-2.9,15.1-11.7,15.1-21.4c0-17.3,0-34.7,0-52c0.1-4.8-1.3-9.5-4-13.4c-4.3-5.9-10.2-8.7-17.3-8.9
			c-6.2-0.2-12.3,0-18.5,0c-2.7,0-2.8,0-2.8,2.8L259.6,59.7z"/>
		<path class="st0" d="M389.3,46.8c0,14,0.3,28-0.1,41.9c-0.4,13.2-7.3,22.7-19.1,27.9c-15.5,7-33.8,0.5-41.6-14.6
			c-2.6-5-3.8-10.6-3.7-16.2c0-20.4,0-40.7,0-61.1c0-7.5,0-14.9,0-22.4c0-1.7,0.6-2.3,2.3-2.2c2.1,0.1,4.1,0,6.2,0
			c2.4,0,2.5,0.1,2.5,2.5c0,27.8,0,55.6,0,83.3c-0.2,3.5,0.5,7,1.9,10.2c2.2,5,6.4,9,11.6,10.9c11.6,4.3,22.5-0.8,27.5-11.2
			c1.4-3.3,2.1-6.8,2-10.4c0-27.4,0-54.8,0-82.3c0-3,0-3,3-3c1.8,0,3.7,0.1,5.5,0c1.6-0.1,2.2,0.5,2.2,2.2c-0.1,5.1,0,10.2,0,15.3
			v29.3H389.3z"/>
		<text transform="matrix(1 0 0 1 248.85 141.53)" class="st0 st1 st2">COMUNICAÇÃO</text>
		<text transform="matrix(1 0 0 1 397.88 141.53)" class="st0 st1 st2"> </text>
		<text transform="matrix(1 0 0 1 402.42 141.53)" class="st0 st1 st2">T</text>
		<text transform="matrix(1 0 0 1 414.9 141.53)" class="st0 st1 st2">O</text>
		<text transform="matrix(1 0 0 1 428.29 141.53)" class="st0 st1 st2 st3">T</text>
		<text transform="matrix(1 0 0 1 439.85 141.53)" class="st0 st1 st2">AL</text>
	</g>
</g>
</svg>
