<svg xmlns="http://www.w3.org/2000/svg" viewBox="0 0 464.91 147.13"><defs><style>.cls-1,.cls-2{fill:#16365b;}.cls-2{font-size:20.64px;font-family:Roboto-Bold, Roboto;font-weight:700;}.cls-3{letter-spacing:-0.03em;}.cls-4{letter-spacing:-0.01em;}.cls-5{letter-spacing:-0.04em;}.cls-6{letter-spacing:-0.06em;}</style></defs><g id="Camada_2" data-name="Camada 2"><g id="Camada_1-2" data-name="Camada 1"><path class="cls-1" d="M41,100.26c-4.78,0-9.24.07-13.7,0A49.72,49.72,0,0,1,19,99.68,23.16,23.16,0,0,1,.24,76.9C0,58.83-.12,40.75.27,22.68.52,10.69,10.36-.08,24.48,0,53.29.17,82.1,0,110.92.06c7.25,0,14.53-.22,21.76.26,10.68.7,19.68,9.71,20.65,20.43.39,4.34.07,8.74.07,13.35H151q-18.64,0-37.31,0c-11.24,0-19.58,8.35-19.6,19.6q0,20.62,0,41.25c0,1.68.15,3.36.24,5.3h-2.5c-6.79,0-13.59-.06-20.39.07a4.62,4.62,0,0,0-3.07,1.42c-7.77,9-15.41,18.11-23.17,27.13-.7.8-2,1.11-3,1.66-.4-1.08-1.13-2.16-1.15-3.24-.1-8,0-15.91,0-23.87Z"/><path class="cls-1" d="M186.88,125c0,1.16,0,2,0,2.82,0,5.72,0,11.43,0,17.15a6.58,6.58,0,0,1-.84,2.17,7.1,7.1,0,0,1-2-1.14q-8.22-9.59-16.3-19.29A4.29,4.29,0,0,0,164,125c-13.67.07-27.34,0-41,0-10.7,0-18.06-7.3-18.09-18q0-23.29,0-46.58A17.1,17.1,0,0,1,122,43.07q46.33-.12,92.68,0c9.58,0,17,7.58,17,17.45q.21,23.64,0,47.27A17.16,17.16,0,0,1,214.17,125c-8.11,0-16.22,0-24.33,0Z"/><path class="cls-1" d="M447.6,57.43c3,2.45,6,4.48,8.52,7a29.88,29.88,0,0,1,8.61,18.75,31,31,0,0,1-2.26,15.75,31.69,31.69,0,0,1-18.57,17.71,37.2,37.2,0,0,1-13.4,2.09c-9.24-.07-18.48,0-27.72,0-2.41,0-2.49-.09-2.49-2.49q0-56.5,0-113c0-1.65.32-2.54,2.21-2.52C411.23.81,420,.6,428.75,1c9.72.42,17.57,4.91,23.36,12.65,7.2,9.62,8.25,20.24,4.21,31.41a28.17,28.17,0,0,1-6.52,10C449,55.87,448.28,56.7,447.6,57.43Zm-23.79,7.78c-3.5,0-7,.06-10.49,0-1.65-.05-2.28.43-2.28,2.19q.1,19.11,0,38.21c0,1.59.42,2.22,2.1,2.2,6.7-.08,13.39.09,20.08-.1a22.92,22.92,0,0,0,7.44-1.4,21.07,21.07,0,0,0,11.79-28.06c-3.7-8.35-10.18-12.62-19.23-13C430.09,65.1,427,65.21,423.81,65.21ZM411.08,32.9c0,6.46,0,12.91,0,19.36,0,1.42.36,2,1.88,2,5-.07,10,.17,14.92-.08a19.34,19.34,0,0,0,14.23-6.69c6.15-7.25,7.58-15.46,3.31-24.21A19.16,19.16,0,0,0,429.69,12c-5.38-.61-10.86-.37-16.3-.47-2.16,0-2.3.13-2.31,2.33Q411.07,23.4,411.08,32.9Z"/><path class="cls-1" d="M248.85,59.91V3.6c0-2.9.13-3,3-3,9.24,0,18.48,0,27.72,0A37.4,37.4,0,0,1,295.2,3.9a30.24,30.24,0,0,1,13.52,12.59,33,33,0,0,1,4.39,17.28q0,25.95,0,51.88c0,9.67-3.34,17.94-10.5,24.44a32.81,32.81,0,0,1-22.78,8.78c-9.29,0-18.59,0-27.89,0-3.07,0-3.08,0-3.09-3Zm10.75-.26c0,15.33,0,30.67,0,46,0,1.75.6,2.27,2.25,2.26,6.81-.06,13.62,0,20.43-.07a17.06,17.06,0,0,0,4.88-.73c9.23-2.93,15.09-11.69,15.07-21.36,0-17.35,0-34.7,0-52a22.19,22.19,0,0,0-4.05-13.35c-4.26-5.9-10.19-8.69-17.28-8.93-6.16-.21-12.32,0-18.48,0-2.73,0-2.76,0-2.76,2.79Z"/><path class="cls-1" d="M389.33,46.77c0,14,.31,28-.09,41.94-.37,13.18-7.3,22.71-19.12,27.93A32,32,0,0,1,328.55,102a34.45,34.45,0,0,1-3.73-16.24q0-30.55,0-61.12c0-7.47.05-14.93,0-22.39,0-1.74.59-2.33,2.26-2.25,2.07.09,4.15,0,6.22,0,2.43,0,2.51.11,2.51,2.49q0,41.67,0,83.33A22.91,22.91,0,0,0,337.7,96a20.59,20.59,0,0,0,11.59,10.9c11.59,4.33,22.53-.78,27.47-11.2a24,24,0,0,0,2-10.37q0-41.13,0-82.27c0-3,0-3,3-3,1.84,0,3.68.07,5.51,0,1.6-.08,2.2.53,2.17,2.16-.07,5.1,0,10.19,0,15.29V46.77Z"/><text class="cls-2" transform="translate(248.85 141.53)">COMUNICAÇÃO<tspan class="cls-3" x="149.03" y="0"> </tspan><tspan class="cls-4" x="153.57" y="0">T</tspan><tspan class="cls-5" x="166.05" y="0">O</tspan><tspan class="cls-6" x="179.44" y="0">T</tspan><tspan x="191" y="0">AL</tspan></text></g></g></svg>