<?xml version="1.0" encoding="utf-8"?>
<!-- Generator: Adobe Illustrator 25.2.1, SVG Export Plug-In . SVG Version: 6.00 Build 0)  -->
<svg version="1.1" id="Camada_1" xmlns="http://www.w3.org/2000/svg" xmlns:xlink="http://www.w3.org/1999/xlink" x="0px" y="0px"
	 viewBox="0 0 362 300" style="enable-background:new 0 0 362 300;" xml:space="preserve">
<style type="text/css">
	.st0{fill:#A6DBF8;}
	.st1{fill:#F7F7F7;}
	.st2{fill:#16365B;}
	.st3{fill:#2B2441;}
	.st4{opacity:0.5;}
	.st5{opacity:0.5;fill:#FFFFFF;enable-background:new    ;}
	.st6{fill:#006098;}
	.st7{fill:#655792;}
	.st8{opacity:0.5;fill:#E0E4ED;enable-background:new    ;}
	.st9{fill:#2D2C56;}
	.st10{fill:#37354C;}
	.st11{fill:#EAD18C;}
	.st12{opacity:0.5;fill:url(#SVGID_1_);enable-background:new    ;}
	.st13{fill:#FFFFFF;}
	.st14{fill:url(#SVGID_2_);}
	.st15{fill:#EEBCC5;}
	.st16{fill:#EFF2F7;}
	.st17{fill:#2D2B42;}
	.st18{fill:url(#SVGID_3_);}
	.st19{fill:#D98E9D;}
	.st20{opacity:0.5;fill:url(#SVGID_4_);enable-background:new    ;}
	.st21{fill:url(#SVGID_5_);}
	.st22{fill:url(#SVGID_6_);}
	.st23{fill:#9B5342;}
	.st24{fill:#BCBACE;}
	.st25{fill:url(#SVGID_7_);}
</style>
<path class="st0" d="M349.5,184.6h-68c-3.1,0-6-1.2-8.2-3.4c-2.2-2.2-3.4-5.1-3.4-8.2s1.2-6,3.4-8.2c2.2-2.2,5.1-3.4,8.2-3.4h68
	c3.1,0,6-1.2,8.2-3.4c2.2-2.2,3.4-5.1,3.4-8.2c0-3.1-1.2-6-3.4-8.2c-2.2-2.2-5.1-3.4-8.2-3.4h-85.8c-0.1,0-0.2,0-0.4,0h-68
	c-2.9,0-5.6-1.1-7.8-3c-2.1-1.9-3.5-4.6-3.7-7.5c-0.3-2.9,0.5-5.7,2.3-8c1.7-2.3,4.2-3.9,7.1-4.4h79.5c3.1,0,6-1.2,8.2-3.4
	c2.2-2.2,3.4-5.1,3.4-8.2c0-3.1-1.2-6-3.4-8.2c-2.2-2.2-5.1-3.4-8.2-3.4h-7.1c-0.7-0.1-1.4-0.2-2.2-0.2h-14.9
	c-2.8-0.5-5.3-2.1-7.1-4.4c-1.7-2.3-2.5-5.2-2.3-8c0.3-2.9,1.6-5.5,3.7-7.4c2.1-1.9,4.9-3,7.8-3h91c3.1,0,6-1.2,8.2-3.4
	c2.2-2.2,3.4-5.1,3.4-8.2c0-3.1-1.2-6-3.4-8.2c-2.2-2.2-5.1-3.4-8.2-3.4h-68c-3.1,0-6-1.2-8.2-3.4c-2.2-2.2-3.4-5.1-3.4-8.2
	c0-3.1,1.2-6,3.4-8.2c2.2-2.2,5.1-3.4,8.2-3.4h68c3.1,0,6-1.2,8.2-3.4c2.2-2.2,3.4-5.1,3.4-8.2c0-3.1-1.2-6-3.4-8.2
	c-2.2-2.2-5.1-3.4-8.2-3.4H89.8c-3.1,0-6,1.2-8.2,3.4c-2.2,2.2-3.4,5.1-3.4,8.2c0,3.1,1.2,6,3.4,8.2c2.2,2.2,5.1,3.4,8.2,3.4h68
	c2.9,0,5.6,1.1,7.8,3c2.1,1.9,3.5,4.6,3.7,7.5c0.3,2.9-0.5,5.7-2.3,8c-1.7,2.3-4.2,3.9-7.1,4.4H80.5c-3.1,0-6,1.2-8.2,3.4
	c-2.2,2.2-3.4,5.1-3.4,8.2c0,3.1,1.2,6,3.4,8.2c2.2,2.2,5.1,3.4,8.2,3.4h7.2c0.7,0.1,1.4,0.2,2.2,0.2h14.9c2.8,0.5,5.3,2.1,7.1,4.4
	c1.7,2.3,2.5,5.2,2.3,8c-0.3,2.9-1.6,5.5-3.7,7.4c-2.1,1.9-4.9,3-7.8,3h-91c-3.1,0-6,1.2-8.2,3.4c-2.2,2.2-3.4,5.1-3.4,8.2
	c0,3.1,1.2,6,3.4,8.2c2.2,2.2,5.1,3.4,8.2,3.4h68c3.1,0,6,1.2,8.2,3.4c2.2,2.2,3.4,5.1,3.4,8.2s-1.2,6-3.4,8.2
	c-2.2,2.2-5.1,3.4-8.2,3.4h-68c-1.5,0-3,0.3-4.5,0.8c-1.4,0.6-2.7,1.4-3.8,2.5c-1.1,1.1-1.9,2.4-2.5,3.8c-0.6,1.4-0.9,2.9-0.9,4.4
	c0,1.5,0.3,3,0.9,4.4c0.6,1.4,1.4,2.7,2.5,3.8c1.1,1.1,2.4,1.9,3.8,2.5c1.4,0.6,2.9,0.9,4.5,0.8h85.8c0.1,0,0.2,0,0.4,0h68
	c3,0,5.8,1.1,8,3.2c2.1,2,3.4,4.8,3.6,7.8c0.2,3-0.8,5.9-2.8,8.1c-1.9,2.2-4.6,3.7-7.6,4H88.4c-3.1,0-6,1.2-8.2,3.4
	c-2.2,2.2-3.4,5.1-3.4,8.2c0,3.1,1.2,6,3.4,8.2c2.2,2.2,5.1,3.4,8.2,3.4h8.1c0.4,0,0.8,0.1,1.2,0.1h14c2.9,0.3,5.6,1.7,7.6,4
	c1.9,2.2,2.9,5.2,2.7,8.1c-0.2,3-1.4,5.7-3.6,7.8c-2.1,2-5,3.2-7.9,3.2h-91c-3.1,0-6,1.2-8.2,3.4c-2.2,2.2-3.4,5.1-3.4,8.2
	c0,3.1,1.2,6,3.4,8.2c2.2,2.2,5.1,3.4,8.2,3.4h68c3.1,0,6,1.2,8.2,3.4c2.2,2.2,3.4,5.1,3.4,8.2s-1.2,6-3.4,8.2
	c-2.2,2.2-5.1,3.4-8.2,3.4h-68c-3.1,0-6,1.2-8.2,3.4c-2.2,2.2-3.4,5.1-3.4,8.2s1.2,6,3.4,8.2c2.2,2.2,5.1,3.4,8.2,3.4h251.8
	c3.1,0,6-1.2,8.2-3.4c2.2-2.2,3.4-5.1,3.4-8.2s-1.2-6-3.4-8.2c-2.2-2.2-5.1-3.4-8.2-3.4h-68c-3,0-5.8-1.1-8-3.2
	c-2.1-2-3.4-4.8-3.6-7.8c-0.2-3,0.8-5.9,2.8-8.1c1.9-2.2,4.6-3.7,7.6-4h78.6c3.1,0,6-1.2,8.2-3.4c2.2-2.2,3.4-5.1,3.4-8.2
	s-1.2-6-3.4-8.2c-2.2-2.2-5.1-3.4-8.2-3.4h-8.1c-0.4,0-0.8-0.1-1.2-0.1h-14c-2.9-0.3-5.6-1.7-7.6-4c-1.9-2.2-2.9-5.1-2.7-8.1
	c0.2-3,1.4-5.7,3.6-7.8c2.1-2,5-3.2,7.9-3.2h91c3.1,0,6-1.2,8.2-3.4c2.2-2.2,3.4-5.1,3.4-8.2s-1.2-6-3.4-8.2
	C355.5,185.8,352.6,184.6,349.5,184.6L349.5,184.6z M180.8,69.3c2.9,0,5.6,1.1,7.8,3c2.1,1.9,3.5,4.6,3.7,7.5c0.3,2.9-0.5,5.7-2.3,8
	c-1.7,2.3-4.2,3.9-7.1,4.4h-10.6c-2.9,0-5.6-1.1-7.8-3c-2.1-1.9-3.5-4.6-3.7-7.5c-0.3-2.9,0.5-5.7,2.3-8c1.7-2.3,4.2-3.9,7.1-4.4
	H180.8z M180.3,230.7c-3,0-5.8-1.1-8-3.2c-2.1-2-3.4-4.8-3.6-7.8s0.8-5.9,2.8-8.1c1.9-2.2,4.6-3.7,7.6-4h9.6c3,0,5.8,1.1,8,3.2
	c2.1,2,3.4,4.8,3.6,7.8c0.2,3-0.8,5.9-2.8,8.1c-1.9,2.2-4.6,3.7-7.6,4H180.3z"/>
<path class="st1" d="M284.8,50H77c-2,0-3.9,0.8-5.3,2.2c-1.4,1.4-2.2,3.3-2.2,5.3v143.1h222.9V57.5c0-2-0.8-3.9-2.2-5.3
	C288.7,50.8,286.8,50,284.8,50L284.8,50z"/>
<path class="st2" d="M284.8,53.2H77.6c-1.2,0-2.4,0.5-3.3,1.4c-0.9,0.9-1.4,2.1-1.4,3.3v142.5h216.5V57.9c0-0.6-0.1-1.2-0.3-1.8
	c-0.2-0.6-0.6-1.1-1-1.5c-0.4-0.4-0.9-0.8-1.5-1C286,53.3,285.4,53.2,284.8,53.2L284.8,53.2z"/>
<path class="st3" d="M281.7,63.6h-201v129.9h201V63.6z"/>
<path class="st1" d="M182,59c0,0.2-0.1,0.4-0.2,0.6c-0.1,0.2-0.3,0.3-0.5,0.4c-0.2,0.1-0.4,0.1-0.7,0.1c-0.2,0-0.4-0.2-0.6-0.3
	c-0.2-0.2-0.3-0.4-0.3-0.6c0-0.2,0-0.4,0.1-0.7c0.1-0.2,0.2-0.4,0.4-0.5c0.2-0.1,0.4-0.2,0.6-0.2c0.3,0,0.6,0.1,0.8,0.3
	S182,58.7,182,59L182,59z"/>
<g class="st4">
	<path class="st5" d="M95.7,70.7h-8.3v3.6h8.3V70.7z"/>
	<path class="st5" d="M95.7,77.3h-8.3v3.6h8.3V77.3z"/>
	<path class="st5" d="M95.7,85h-8.3v3.6h8.3V85z"/>
	<path class="st5" d="M95.7,92.7h-8.3v3.6h8.3V92.7z"/>
	<path class="st5" d="M95.7,100.4h-8.3v3.6h8.3V100.4z"/>
	<path class="st5" d="M95.7,108.1h-8.3v3.6h8.3V108.1z"/>
	<path class="st5" d="M95.7,118.2h-8.3v3.6h8.3V118.2z"/>
	<path class="st5" d="M95.7,124.7h-8.3v3.6h8.3V124.7z"/>
	<path class="st5" d="M95.7,132.4h-8.3v3.6h8.3V132.4z"/>
	<path class="st5" d="M95.7,140.1h-8.3v3.6h8.3V140.1z"/>
	<path class="st5" d="M95.7,147.8h-8.3v3.6h8.3V147.8z"/>
	<path class="st5" d="M95.7,155.5h-8.3v3.6h8.3V155.5z"/>
	<path class="st5" d="M95.7,165.6h-8.3v3.6h8.3V165.6z"/>
	<path class="st5" d="M95.7,172.1h-8.3v3.6h8.3V172.1z"/>
	<path class="st5" d="M95.7,179.8h-8.3v3.6h8.3V179.8z"/>
</g>
<path class="st6" d="M125.8,70.5h-20.2V74h20.2V70.5z"/>
<path class="st6" d="M132.9,78.3h-20.2v3.6h20.2V78.3z"/>
<path class="st6" d="M144.7,86.2h-20.2v3.6h20.2V86.2z"/>
<path class="st6" d="M156.6,94h-20.2v3.6h20.2V94z"/>
<path class="st6" d="M144.7,101.8h-20.2v3.6h20.2V101.8z"/>
<path class="st6" d="M132.9,109.7h-20.2v3.6h20.2V109.7z"/>
<path class="st6" d="M125.8,117.5h-20.2v3.6h20.2V117.5z"/>
<path class="st6" d="M132.9,125.3h-20.2v3.6h20.2V125.3z"/>
<path class="st6" d="M144.7,133.2h-20.2v3.6h20.2V133.2z"/>
<path class="st6" d="M125.8,164.5h-20.2v3.6h20.2V164.5z"/>
<path class="st7" d="M132.9,171.7h-20.2v3.6h20.2V171.7z"/>
<path class="st7" d="M144.7,179.6h-20.2v3.6h20.2V179.6z"/>
<path class="st6" d="M156.6,141h-20.2v3.6h20.2V141z"/>
<path class="st6" d="M144.7,148.8h-20.2v3.6h20.2V148.8z"/>
<path class="st6" d="M132.9,156.7h-20.2v3.6h20.2V156.7z"/>
<g class="st4">
	<path class="st8" d="M197.5,70.5h-67.6V74h67.6V70.5z"/>
	<path class="st8" d="M204.6,78.3H137v3.6h67.6V78.3z"/>
	<path class="st8" d="M216.4,86.2h-67.6v3.6h67.6V86.2z"/>
	<path class="st8" d="M228.3,94h-67.6v3.6h67.6V94z"/>
	<path class="st8" d="M252,101.8H148.9v3.6H252V101.8z"/>
	<path class="st8" d="M180.9,109.7H137v3.6h43.9V109.7z"/>
	<path class="st8" d="M197.5,117.5h-67.6v3.6h67.6V117.5z"/>
	<path class="st8" d="M204.6,125.3H137v3.6h67.6V125.3z"/>
	<path class="st8" d="M216.4,133.2h-67.6v3.6h67.6V133.2z"/>
	<path class="st8" d="M197.5,164.5h-67.6v3.6h67.6V164.5z"/>
	<path class="st8" d="M204.6,171.7H137v3.6h67.6V171.7z"/>
	<path class="st8" d="M216.4,179.6h-67.6v3.6h67.6V179.6z"/>
	<path class="st8" d="M263.9,141H160.7v3.6h103.1V141z"/>
	<path class="st8" d="M216.4,148.8h-67.6v3.6h67.6V148.8z"/>
	<path class="st8" d="M204.6,156.7H137v3.6h67.6V156.7z"/>
</g>
<path class="st6" d="M307.1,198.1H54.6c-0.3,0-0.7,0.1-1,0.2c-0.3,0.1-0.6,0.3-0.9,0.6s-0.4,0.5-0.6,0.9c-0.1,0.3-0.2,0.7-0.2,1v3.4
	c0,0.3,0.1,0.7,0.2,1c0.1,0.3,0.3,0.6,0.6,0.9c0.2,0.2,0.5,0.4,0.9,0.6c0.3,0.1,0.7,0.2,1,0.2h252.5c0.3,0,0.7-0.1,1-0.2
	c0.3-0.1,0.6-0.3,0.9-0.6c0.2-0.2,0.4-0.5,0.6-0.9c0.1-0.3,0.2-0.7,0.2-1v-3.4c0-0.3-0.1-0.7-0.2-1c-0.1-0.3-0.3-0.6-0.6-0.9
	c-0.2-0.2-0.5-0.4-0.9-0.6C307.8,198.1,307.5,198.1,307.1,198.1L307.1,198.1z"/>
<path class="st2" d="M202.6,201.3h-43.3c-0.3,0-0.5,0.1-0.7,0.3c-0.2,0.2-0.3,0.5-0.3,0.7c0,0.3,0.1,0.5,0.3,0.7
	c0.2,0.2,0.5,0.3,0.7,0.3h43.3c0.3,0,0.5-0.1,0.7-0.3c0.2-0.2,0.3-0.5,0.3-0.7c0-0.3-0.1-0.5-0.3-0.7
	C203.1,201.4,202.8,201.3,202.6,201.3L202.6,201.3z"/>
<path class="st2" d="M231.6,145c3.2,0,5.8-2.6,5.8-5.8c0-3.2-2.6-5.8-5.8-5.8s-5.8,2.6-5.8,5.8C225.8,142.4,228.4,145,231.6,145z"/>
<path class="st9" d="M119.8,232.8l0,4.3c0,0-0.5,2.7-1,5.6c-0.4,2.9-0.8,6-0.3,6.7c0.9,1.4,2.6,0,2.9-1.4s0.7-10.4,0.7-10.4l0.3-5.8
	L119.8,232.8z"/>
<path class="st9" d="M115.5,232.2l0.7,3.8c0,0,1.3,10.5,0.6,12.1c-0.7,1.6-3,0.9-2.9-1.3c0.1-2.2-0.4-9.8-0.4-9.8l-1.3-4.6
	L115.5,232.2z"/>
<path class="st10" d="M117.2,185.4l0.3,4.7l-12.2,5.9c-1.1,0.6-1.9,1.5-2.4,2.6c-0.5,1.1-0.5,2.4-0.2,3.5l8.4,31.4l4.2-1.3
	l-3.7-28.9c-0.1-0.9,0.1-1.7,0.6-2.4c0.5-0.7,1.3-1.2,2.1-1.3l4.3-0.7l4.6-4.7l-5.3,4.8c-0.6,0.6-1.1,1.3-1.4,2.1
	c-0.3,0.8-0.4,1.7-0.3,2.5l3.4,29.1l3.8,0.9l1.7-28.7c0.1-0.9,0.4-1.7,0.9-2.4c0.6-0.7,1.3-1.2,2.1-1.5l7.5-2.4
	c0.6-0.4,1.1-0.9,1.4-1.5c0.3-0.6,0.5-1.3,0.6-2l-0.3-10.1L117.2,185.4z"/>
<path class="st11" d="M138.4,196l-2-39.2c0,0-8.3-0.5-10.8-0.5c-1.9,0.2-3.7,0.6-5.5,1.2c-1.7,0.6-3.1,0.5-4,2.1l-13.7,26.2l8.4,0.8
	l2.8-3.2l-1.4-2.2l5.1-12l-1,21.9L138.4,196z"/>
<linearGradient id="SVGID_1_" gradientUnits="userSpaceOnUse" x1="108.071" y1="127.6905" x2="117.304" y2="127.6905" gradientTransform="matrix(1 0 0 -1 0 302)">
	<stop  offset="0" style="stop-color:#EAD18C;stop-opacity:0"/>
	<stop  offset="1" style="stop-color:#524F63;stop-opacity:0.702"/>
</linearGradient>
<path class="st12" d="M117.1,164.4l-9.1,16.4l2.8,3.3c0.7,0.1,1.5,0.1,2.2-0.1l0.5-0.6l-1.4-2.2l5.1-12L117.1,164.4z"/>
<path class="st13" d="M128,163.2c1.3,0,2.6-0.5,3.5-1.5c0.9-0.9,1.5-2.2,1.5-3.5c0-0.5-0.1-1.1-0.3-1.6c-2.6-0.1-5.8-0.3-7.2-0.3
	c-0.8,0-1.5,0.1-2.3,0.3c-0.2,0.7-0.3,1.5-0.2,2.3c0.1,0.8,0.4,1.5,0.9,2.2c0.5,0.6,1.1,1.2,1.8,1.5
	C126.4,163,127.2,163.2,128,163.2L128,163.2z"/>
<linearGradient id="SVGID_2_" gradientUnits="userSpaceOnUse" x1="110.391" y1="120.2603" x2="162.21" y2="123.7593" gradientTransform="matrix(1 0 0 -1 0 302)">
	<stop  offset="0" style="stop-color:#EAD18C;stop-opacity:0"/>
	<stop  offset="1" style="stop-color:#524F63;stop-opacity:0.702"/>
</linearGradient>
<path class="st14" d="M137.3,163.6l1,32.6l-13.5-3.2L137.3,163.6z"/>
<path class="st15" d="M124.7,152.3c0.2,0.5,1.9,6.9,1.9,6.9c0.2,0.3,0.5,0.6,0.9,0.8c0.4,0.2,0.7,0.2,1.1,0.2c1.4-0.1,2-2.1,2-2.1
	l-2.5-8.1L124.7,152.3z"/>
<path class="st15" d="M133.3,148.3c0,4.4-4.7,9.3-9.1,9.3s-6.9-4.9-6.9-9.3c0-2.1,0.8-4.2,2.3-5.7s3.5-2.3,5.7-2.3s4.2,0.8,5.7,2.3
	S133.3,146.2,133.3,148.3L133.3,148.3z"/>
<path class="st15" d="M134.1,150.4c0.8-4.9-2.5-9.6-7.5-10.4c-4.9-0.8-9.6,2.5-10.4,7.5c-0.8,4.9,2.5,9.6,7.5,10.4
	C128.6,158.7,133.3,155.3,134.1,150.4z"/>
<path class="st16" d="M118.8,155.7c-0.6-0.1-1.1-0.3-1.6-0.6c-0.5-0.4-0.8-0.8-1-1.4c-0.1-0.3-0.2-0.5-0.1-0.8
	c0-0.3,0.1-0.5,0.2-0.8c0.1-0.2,0.3-0.3,0.5-0.4c0.2-0.1,0.4-0.1,0.7-0.1c0.6,0,1.1,0.3,1.6,0.6c0.5,0.4,0.8,0.8,1,1.4
	c0.1,0.2,0.2,0.5,0.1,0.8c0,0.3-0.1,0.5-0.2,0.8c-0.1,0.2-0.3,0.3-0.5,0.4C119.2,155.6,119,155.7,118.8,155.7L118.8,155.7z
	 M117.4,151.9c-0.2,0-0.3,0-0.5,0.1c-0.2,0.1-0.3,0.2-0.4,0.3c-0.1,0.2-0.2,0.4-0.2,0.6c0,0.2,0,0.4,0.1,0.6
	c0.2,0.5,0.5,0.9,0.9,1.2c0.4,0.3,0.9,0.5,1.4,0.6c0.2,0,0.3,0,0.5-0.1c0.2-0.1,0.3-0.2,0.4-0.3c0.1-0.2,0.2-0.4,0.2-0.6
	c0-0.2,0-0.4-0.1-0.6c-0.2-0.5-0.5-0.9-0.9-1.2C118.4,152.1,117.9,151.9,117.4,151.9L117.4,151.9z"/>
<path class="st16" d="M124.1,155.7c-0.6-0.1-1.1-0.3-1.6-0.6c-0.5-0.4-0.8-0.8-1-1.4c-0.1-0.3-0.2-0.5-0.1-0.8
	c0-0.3,0.1-0.5,0.2-0.8c0.1-0.2,0.3-0.3,0.5-0.4c0.2-0.1,0.4-0.1,0.6-0.1c0.6,0,1.1,0.3,1.6,0.6c0.5,0.4,0.8,0.8,1,1.4
	c0.1,0.2,0.2,0.5,0.1,0.8c0,0.3-0.1,0.5-0.2,0.8c-0.1,0.2-0.3,0.3-0.5,0.4C124.5,155.6,124.3,155.7,124.1,155.7L124.1,155.7z
	 M122.7,151.9c-0.2,0-0.3,0-0.5,0.1c-0.2,0.1-0.3,0.2-0.4,0.3c-0.1,0.2-0.2,0.4-0.2,0.6c0,0.2,0,0.4,0.1,0.6
	c0.2,0.5,0.5,0.9,0.9,1.2c0.4,0.3,0.9,0.5,1.4,0.6c0.2,0,0.3,0,0.5-0.1c0.2-0.1,0.3-0.2,0.4-0.3c0.1-0.2,0.2-0.4,0.2-0.6
	c0-0.2,0-0.4-0.1-0.6c-0.2-0.5-0.5-0.9-0.9-1.2C123.8,152.1,123.3,151.9,122.7,151.9L122.7,151.9z"/>
<path class="st17" d="M119.7,154.1c0.1,0.2,0.1,0.5,0,0.6s-0.4,0-0.6-0.3c-0.1-0.2-0.1-0.5,0-0.6
	C119.3,153.8,119.6,153.9,119.7,154.1z"/>
<path class="st17" d="M123.7,154.3c0.1,0.2,0.1,0.5,0,0.6c-0.2,0.1-0.4,0-0.6-0.3c-0.1-0.2-0.1-0.5,0-0.6S123.6,154.1,123.7,154.3z"
	/>
<path class="st15" d="M126.9,192.2c-0.3-0.1-3.3-1.6-5.4-1.6c-2.1,0-4.7,2.2-4.7,2.2s-0.3,1.2,1,0.9c1.4-0.2-0.2,0.9-0.2,0.9
	c0.6,0.1,1.1,0.2,1.7,0.3c1.6,0.2,8-0.1,8-0.1L126.9,192.2z"/>
<path class="st11" d="M136.3,156.8l1.1,25.8l-10.6,9.6l0.5,2.7l14.9-8c0.7-0.4,1.3-1,1.6-1.7c0.4-0.7,0.5-1.5,0.4-2.3l-2.7-19.7
	c-0.1-1.2-0.5-2.4-1.2-3.4c-0.7-1-1.6-1.8-2.7-2.3L136.3,156.8z"/>
<path class="st13" d="M127.9,197.1h-27v-2h27c0.3,0,0.5,0.1,0.7,0.3c0.2,0.2,0.3,0.4,0.3,0.7l0,0c0,0.1,0,0.3-0.1,0.4
	c0,0.1-0.1,0.2-0.2,0.3c-0.1,0.1-0.2,0.2-0.3,0.2C128.2,197.1,128.1,197.1,127.9,197.1L127.9,197.1z"/>
<path class="st13" d="M120.5,197.1h-26c-0.6,0-1.1-0.2-1.5-0.5c-0.4-0.3-0.8-0.8-0.9-1.4l-4.6-17.3c-0.1-0.4-0.1-0.8,0-1.2
	c0.1-0.4,0.2-0.7,0.5-1c0.2-0.3,0.5-0.6,0.9-0.7c0.3-0.2,0.7-0.3,1.1-0.3h22.7c0.6,0,1.1,0.2,1.5,0.5c0.4,0.3,0.8,0.8,0.9,1.4
	L120.5,197.1z"/>
<linearGradient id="SVGID_3_" gradientUnits="userSpaceOnUse" x1="108.6984" y1="116.2251" x2="63.7308" y2="117.2501" gradientTransform="matrix(1 0 0 -1 0 302)">
	<stop  offset="0" style="stop-color:#484EC2;stop-opacity:0"/>
	<stop  offset="1" style="stop-color:#444BCC;stop-opacity:0.502"/>
</linearGradient>
<path class="st18" d="M89.9,174.7c-0.4,0-0.8,0.1-1.1,0.3c-0.3,0.2-0.7,0.4-0.9,0.7c-0.2,0.3-0.4,0.7-0.5,1s-0.1,0.8,0,1.2l4.6,17.3
	c0.1,0.5,0.4,1,0.9,1.3l15.8-21.8L89.9,174.7L89.9,174.7z"/>
<path class="st2" d="M125.2,139.9c-2.2,0-4.3,0.8-6,2.3c-1.7,1.5-2.7,3.5-3,5.7c0.9,0.6,1.8,1.1,2.9,1.3c1,0.2,2.1,0.2,3.2-0.1
	c1-0.3,2-0.7,2.8-1.4c0.8-0.7,1.5-1.5,1.9-2.5c-0.1,1-0.1,2,0,3c0.1,1,0.6,1.9,1.4,2.6c0-0.7,0.2-1.4,0.5-2c0.2-0.3,0.4-0.6,0.8-0.7
	c0.3-0.1,0.7-0.2,1-0.1c0.2,0.1,0.4,0.3,0.6,0.5c0.1,0.2,0.2,0.4,0.3,0.7c0,0.5,0,1-0.2,1.5c-0.3,0.7-0.7,1.4-1.3,2
	c1.1,0.2,2.2,0.3,3.3,0.2c0.7-1.4,1-2.9,0.9-4.4c-0.1-1.5-0.6-3-1.4-4.3c-0.8-1.3-1.9-2.4-3.3-3.1
	C128.2,140.3,126.7,139.9,125.2,139.9L125.2,139.9z"/>
<path class="st15" d="M132.9,150.5c0,0.5-0.2,1.1-0.5,1.5c-0.3,0.4-0.7,0.8-1.2,1c-0.5,0.2-1,0.3-1.6,0.2c-0.5-0.1-1-0.4-1.4-0.7
	c-0.4-0.4-0.6-0.9-0.7-1.4c-0.1-0.5-0.1-1.1,0.2-1.6c0.2-0.5,0.6-0.9,1-1.2c0.4-0.3,1-0.5,1.5-0.5c0.7,0,1.4,0.3,1.9,0.8
	C132.6,149,132.9,149.7,132.9,150.5L132.9,150.5z"/>
<path class="st15" d="M115.5,232.2l0.5,2.9l-2.9,0.9l-0.8-2.8L115.5,232.2z"/>
<path class="st15" d="M119.9,236l2.4,0.5l0.1-3l-2.5-0.6L119.9,236z"/>
<path class="st9" d="M242.1,232.8l0,4.3c0,0,0.5,2.7,1,5.6s0.8,6,0.3,6.7c-0.9,1.4-2.6,0-2.9-1.4c-0.3-1.4-0.7-10.4-0.7-10.4
	l-0.3-5.8L242.1,232.8z"/>
<path class="st9" d="M246.5,232.2l-0.7,3.8c0,0-1.3,10.5-0.6,12.1c0.7,1.6,3,0.9,2.9-1.3c-0.1-2.2,0.4-9.8,0.4-9.8l1.3-4.6
	L246.5,232.2z"/>
<path class="st2" d="M244.7,185.4l-0.3,4.7l12.2,5.9c1.1,0.6,1.9,1.5,2.4,2.6c0.5,1.1,0.5,2.4,0.2,3.5l-8.4,31.4l-4.2-1.3l3.7-28.9
	c0.1-0.9-0.1-1.7-0.6-2.4c-0.5-0.7-1.3-1.2-2.1-1.3l-4.3-0.7l-4.6-4.7l5.3,4.8c0.6,0.6,1.1,1.3,1.4,2.1c0.3,0.8,0.4,1.7,0.3,2.5
	l-3.4,29.1l-3.8,0.9l-1.7-28.7c-0.1-0.9-0.4-1.7-0.9-2.4c-0.6-0.7-1.3-1.2-2.1-1.5l-7.5-2.4c-0.6-0.4-1.1-0.9-1.4-1.5
	c-0.3-0.6-0.5-1.3-0.6-2l0.3-10.1L244.7,185.4z"/>
<path class="st19" d="M223.6,196l2-39.2c0,0,8.3-0.5,10.8-0.5c1.9,0.2,3.7,0.6,5.5,1.2c1.7,0.6,3.1,0.5,4,2.1l13.7,26.2l-8.4,0.8
	l-2.8-3.2l1.4-2.2l-5.1-12l1,21.9L223.6,196z"/>
<linearGradient id="SVGID_4_" gradientUnits="userSpaceOnUse" x1="221.672" y1="127.6905" x2="230.905" y2="127.6905" gradientTransform="matrix(1 0 0 -1 0 302)">
	<stop  offset="0" style="stop-color:#D37897;stop-opacity:0"/>
	<stop  offset="0.899" style="stop-color:#BC547C"/>
</linearGradient>
<path class="st20" d="M244.8,164.4l9.1,16.4l-2.8,3.3c-0.7,0.1-1.5,0.1-2.2-0.1l-0.5-0.6l1.4-2.2l-5.1-12L244.8,164.4z"/>
<path class="st13" d="M236.8,168.1c-2.8,0-7.8-7.2-7.8-9.9c0-0.5,0.1-1.1,0.3-1.6c2.6-0.1,5.8-0.3,7.2-0.3c0.8,0,1.5,0.1,2.3,0.3
	c0.2,0.5,0.2,1,0.2,1.6C238.9,161,239.5,168.1,236.8,168.1z"/>
<linearGradient id="SVGID_5_" gradientUnits="userSpaceOnUse" x1="223.8469" y1="122.0983" x2="275.6659" y2="125.5973" gradientTransform="matrix(1 0 0 -1 0 302)">
	<stop  offset="0" style="stop-color:#D37897;stop-opacity:0"/>
	<stop  offset="0.899" style="stop-color:#BC547C"/>
</linearGradient>
<path class="st21" d="M224.6,163.6l-1,32.6L237,193L224.6,163.6z"/>
<path class="st15" d="M237.2,152.3c-0.2,0.5-1.9,6.9-1.9,6.9c-0.2,0.3-0.5,0.6-0.9,0.8c-0.4,0.2-0.7,0.2-1.1,0.2
	c-1.4-0.1-2-2.1-2-2.1l2.5-8.1L237.2,152.3z"/>
<path class="st15" d="M228.6,148.3c0,4.4,4.7,9.3,9.1,9.3c4.4,0,6.9-4.9,6.9-9.3c0-2.1-0.8-4.2-2.3-5.7c-1.5-1.5-3.5-2.3-5.7-2.3
	c-2.1,0-4.2,0.8-5.7,2.3C229.4,144.2,228.6,146.2,228.6,148.3L228.6,148.3z"/>
<path class="st15" d="M238.2,157.9c4.9-0.8,8.3-5.4,7.5-10.4c-0.8-4.9-5.4-8.3-10.4-7.5s-8.3,5.4-7.5,10.4S233.3,158.7,238.2,157.9z
	"/>
<path class="st17" d="M242.7,153.9c-0.2,0.3-0.2,0.7,0.1,0.8c0.2,0.1,0.5,0,0.7-0.3s0.2-0.7-0.1-0.8
	C243.2,153.4,242.9,153.6,242.7,153.9z"/>
<path class="st17" d="M238.2,154.4c-0.2,0.3-0.2,0.7,0.1,0.9s0.6,0,0.8-0.4c0.2-0.3,0.2-0.7-0.1-0.9S238.4,154,238.2,154.4z"/>
<path class="st15" d="M235.1,192.2c0.4-0.1,3.3-1.6,5.4-1.6c2.1,0,4.7,2.2,4.7,2.2s0.4,1.2-1,0.9s0.2,0.9,0.2,0.9
	c-0.6,0.1-1.1,0.2-1.7,0.3c-1.6,0.2-8-0.1-8-0.1L235.1,192.2z"/>
<path class="st19" d="M225.6,156.8l-1.1,25.8l10.6,9.6l-0.5,2.7l-14.9-8c-0.7-0.4-1.3-1-1.6-1.7c-0.4-0.7-0.5-1.5-0.4-2.3l2.7-19.7
	c0.1-1.2,0.5-2.4,1.2-3.4c0.7-1,1.6-1.8,2.7-2.3L225.6,156.8z"/>
<path class="st13" d="M234,197.1h27v-2h-27c-0.3,0-0.5,0.1-0.7,0.3c-0.2,0.2-0.3,0.4-0.3,0.7l0,0c0,0.1,0,0.3,0.1,0.4
	c0,0.1,0.1,0.2,0.2,0.3c0.1,0.1,0.2,0.2,0.3,0.2C233.7,197.1,233.9,197.1,234,197.1L234,197.1z"/>
<path class="st13" d="M241.4,197.1h26c0.6,0,1.1-0.2,1.5-0.5c0.4-0.3,0.8-0.8,0.9-1.4l4.6-17.3c0.1-0.4,0.1-0.8,0-1.2
	c-0.1-0.4-0.2-0.7-0.5-1s-0.5-0.6-0.9-0.7c-0.3-0.2-0.7-0.3-1.1-0.3h-22.7c-0.6,0-1.1,0.2-1.5,0.5c-0.4,0.3-0.8,0.8-0.9,1.4
	L241.4,197.1z"/>
<linearGradient id="SVGID_6_" gradientUnits="userSpaceOnUse" x1="222.2995" y1="117.5047" x2="177.3275" y2="118.5297" gradientTransform="matrix(1 0 0 -1 0 302)">
	<stop  offset="0" style="stop-color:#484EC2;stop-opacity:0"/>
	<stop  offset="1" style="stop-color:#444BCC;stop-opacity:0.502"/>
</linearGradient>
<path class="st22" d="M272,174.7c0.4,0,0.8,0.1,1.1,0.3c0.3,0.2,0.7,0.4,0.9,0.7c0.2,0.3,0.4,0.7,0.5,1c0.1,0.4,0.1,0.8,0,1.1
	l-4.6,17.3c-0.1,0.5-0.4,1-0.9,1.3l-15.8-21.8L272,174.7L272,174.7z"/>
<path class="st2" d="M236.8,139.9c2.2,0,4.3,0.8,6,2.3c1.7,1.5,2.7,3.5,3,5.7c-0.9,0.6-1.8,1.1-2.9,1.3c-1,0.2-2.1,0.2-3.2-0.1
	s-2-0.7-2.8-1.4c-0.8-0.7-1.5-1.5-1.9-2.5c0.1,1,0.1,2,0,3c-0.1,1-0.6,1.9-1.4,2.6c0-0.7-0.2-1.4-0.5-2c-0.2-0.3-0.4-0.6-0.8-0.7
	c-0.3-0.1-0.7-0.2-1-0.1c-0.2,0.1-0.4,0.3-0.6,0.5c-0.1,0.2-0.2,0.4-0.3,0.7c0,0.5,0,1,0.2,1.5c0.3,0.7,0.7,1.4,1.3,2
	c-1.1,0.2-2.2,0.3-3.3,0.2c-0.7-1.4-1-2.9-0.9-4.4c0.1-1.5,0.6-3,1.4-4.3c0.8-1.3,1.9-2.4,3.3-3.1
	C233.7,140.3,235.2,139.9,236.8,139.9L236.8,139.9z"/>
<path class="st15" d="M229,150.5c0,0.5,0.2,1.1,0.5,1.5c0.3,0.4,0.7,0.8,1.2,1c0.5,0.2,1,0.3,1.6,0.2c0.5-0.1,1-0.4,1.4-0.7
	c0.4-0.4,0.6-0.9,0.7-1.4c0.1-0.5,0.1-1.1-0.2-1.6c-0.2-0.5-0.6-0.9-1-1.2c-0.4-0.3-1-0.5-1.5-0.5c-0.7,0-1.4,0.3-1.9,0.8
	C229.3,149,229,149.7,229,150.5L229,150.5z"/>
<path class="st15" d="M246.5,232.2L246,235l2.9,0.9l0.8-2.8L246.5,232.2z"/>
<path class="st15" d="M242.1,236l-2.4,0.5l-0.2-3l2.5-0.6L242.1,236z"/>
<path class="st10" d="M178.8,141.3l-3.2,3.9l-1.6,3.3l-1.5,4.2c-0.9,0.8-1.7,1.6-2.5,2.5c0.1,0-0.1,2.9,0.1,3.4
	c0.3,0.4,3.2,3.9,3.2,3.9c1.2,0.8,2.6,1.5,4,2.1c1.1,0.2,6.8,2.7,6.8,2.7l3.5-3.3l-1.3-1.7c0,0,3.6-2.2,4.1-2.5c0.4-0.3,2.2-2,2.2-2
	c0-0.8-0.1-1.7-0.3-2.5c-0.3-1-2-5.8-2-5.8s-2.3-3.3-2.6-3.9s-1.6-2.5-1.6-2.5L178.8,141.3z"/>
<path class="st2" d="M192.9,187.5l-22.3,0.2l-0.2-22.7c0-0.3,0.1-0.6,0.2-0.9c0.1-0.3,0.3-0.6,0.5-0.8c0.2-0.2,0.5-0.4,0.8-0.5
	c0.3-0.1,0.6-0.2,0.9-0.2l17.5-0.1c0.3,0,0.6,0.1,0.9,0.2c0.3,0.1,0.6,0.3,0.8,0.5c0.2,0.2,0.4,0.5,0.5,0.8c0.1,0.3,0.2,0.6,0.2,0.9
	L192.9,187.5z"/>
<path class="st10" d="M177.3,162.5c0,0,1.7,1.9,1.7,6c0,4.1,0.1,11.6,0.1,11.6l5,0v-11.8c-0.1-1.3,0.1-2.6,0.6-3.9
	c0.5-1.2,1.2-2.3,2.2-3.2l-5.5,0.1L177.3,162.5z"/>
<path class="st15" d="M181.4,167.2c-0.4,0-0.7-0.1-1-0.2c-0.3-0.1-0.6-0.3-0.9-0.6c-0.3-0.3-0.5-0.5-0.6-0.9c-0.1-0.3-0.2-0.7-0.2-1
	l-0.1-8.3c0,0,0-0.1,0-0.1c0,0,0-0.1,0.1-0.1c0,0,0.1-0.1,0.1-0.1c0,0,0.1,0,0.1,0l4.7,0c0,0,0.1,0,0.1,0c0,0,0.1,0,0.1,0.1
	c0,0,0.1,0.1,0.1,0.1c0,0,0,0.1,0,0.1l0.1,8.3c0,0.4-0.1,0.7-0.2,1c-0.1,0.3-0.3,0.6-0.6,0.9c-0.2,0.3-0.5,0.5-0.9,0.6
	C182.1,167.2,181.8,167.2,181.4,167.2L181.4,167.2z"/>
<path class="st23" d="M190.9,154.4c0-0.1,0-0.2,0-0.3c0-0.8-0.1-1.6-0.3-2.4v-1.1c0-2.5-1-4.9-2.8-6.6c-1.8-1.8-4.2-2.8-6.6-2.8l0,0
	c-2.5,0-4.9,1-6.6,2.8c-1.8,1.8-2.8,4.2-2.8,6.6v3.7L190.9,154.4L190.9,154.4z"/>
<path class="st15" d="M189.8,151.8v-0.9c0-2.3-0.9-4.5-2.6-6.1c-1.6-1.6-3.8-2.5-6.1-2.5l0,0c-2.3,0-4.5,0.9-6.1,2.5
	c-1.6,1.6-2.5,3.8-2.6,6.1v3.6c0,0.2,0,0.5,0.1,0.7c0.2,1.2,0.6,2.3,1.2,3.4c0.6,1,1.4,1.9,2.4,2.6c1,0.7,2.1,1.2,3.3,1.5
	c1.2,0.3,2.4,0.3,3.6,0c1.2-0.2,2.3-0.7,3.3-1.4c1-0.7,1.8-1.5,2.5-2.6c0.6-1,1.1-2.1,1.3-3.3C190.2,154.1,190.1,152.9,189.8,151.8
	L189.8,151.8z"/>
<path class="st10" d="M178.5,155.5c0,0.1,0,0.3-0.1,0.4s-0.2,0.2-0.3,0.2c-0.1,0.1-0.3,0.1-0.4,0s-0.2-0.1-0.3-0.2
	c-0.1-0.1-0.2-0.2-0.2-0.3s0-0.3,0-0.4c0.1-0.1,0.1-0.2,0.2-0.3c0.1-0.1,0.2-0.1,0.4-0.1c0.1,0,0.2,0,0.3,0.1c0.1,0,0.2,0.1,0.2,0.1
	c0.1,0.1,0.1,0.1,0.1,0.2C178.5,155.3,178.5,155.4,178.5,155.5z"/>
<path class="st10" d="M184.8,155.5c0,0.1,0,0.3-0.1,0.4c-0.1,0.1-0.2,0.2-0.3,0.2c-0.1,0.1-0.3,0.1-0.4,0c-0.1,0-0.2-0.1-0.3-0.2
	c-0.1-0.1-0.2-0.2-0.2-0.3c0-0.1,0-0.3,0-0.4c0.1-0.1,0.1-0.2,0.2-0.3c0.1-0.1,0.2-0.1,0.4-0.1c0.1,0,0.2,0,0.3,0.1
	c0.1,0,0.2,0.1,0.2,0.1c0.1,0.1,0.1,0.1,0.1,0.2C184.8,155.3,184.8,155.4,184.8,155.5z"/>
<path class="st15" d="M175,155.2c0,0.5-0.1,1-0.4,1.4c-0.3,0.4-0.7,0.7-1.1,0.9c-0.4,0.2-0.9,0.2-1.4,0.1s-0.9-0.3-1.3-0.7
	c-0.3-0.3-0.6-0.8-0.7-1.3s0-1,0.1-1.4c0.2-0.4,0.5-0.8,0.9-1.1c0.4-0.3,0.9-0.4,1.4-0.4c0.3,0,0.6,0.1,0.9,0.2
	c0.3,0.1,0.6,0.3,0.8,0.5c0.2,0.2,0.4,0.5,0.5,0.8C174.9,154.6,175,154.9,175,155.2L175,155.2z"/>
<path class="st15" d="M192.3,155.2c0,0.5-0.1,1-0.4,1.4c-0.3,0.4-0.7,0.7-1.1,0.9c-0.4,0.2-0.9,0.2-1.4,0.1s-0.9-0.3-1.3-0.7
	c-0.3-0.3-0.6-0.8-0.7-1.3s0-1,0.1-1.4c0.2-0.4,0.5-0.8,0.9-1.1c0.4-0.3,0.9-0.4,1.4-0.4c0.3,0,0.6,0.1,0.9,0.2
	c0.3,0.1,0.6,0.3,0.8,0.5c0.2,0.2,0.4,0.5,0.5,0.8C192.2,154.6,192.3,154.9,192.3,155.2L192.3,155.2z"/>
<path class="st24" d="M181.8,197.5l-10.9,5.1l2,33.3H169l-7.9-34.2c-0.2-0.7-0.1-1.5,0.2-2.2c0.3-0.7,0.8-1.3,1.4-1.7l10.3-6.3
	L181.8,197.5z"/>
<path class="st19" d="M172.5,153.6c-0.4,0-0.8,0.2-1.1,0.5c-0.3,0.3-0.4,0.7-0.4,1.1c0,0.4,0.2,0.8,0.4,1.1c0.3,0.3,0.6,0.5,1.1,0.5
	V153.6z"/>
<path class="st19" d="M189.7,153.6c0.4,0,0.8,0.2,1.1,0.5c0.3,0.3,0.4,0.7,0.4,1.1c0,0.4-0.2,0.8-0.4,1.1c-0.3,0.3-0.6,0.5-1.1,0.5
	V153.6z"/>
<path class="st10" d="M184.2,169.3h-5v26.9h5V169.3z"/>
<path class="st10" d="M187.3,151.8c0.2,0.7,0.6,1.6,1.3,1.8c0.3,0,0.6,0,0.9-0.1c0.3-0.1,0.6-0.2,0.8-0.4c0.1-0.1,0.3-0.2,0.4-0.3
	c0.1-0.1,0.2-0.3,0.2-0.4c0-0.3-0.1-0.6-0.2-0.8c-0.5-1-1.1-1.9-1.8-2.8c-0.6-0.7-1.8-1.9-2.5-0.7
	C185.9,148.9,187,150.9,187.3,151.8z"/>
<path class="st10" d="M188.2,146.2c-2-1.5-4.4-2.3-6.9-2.3l0.1-1.6c-2.5,0-5,2.4-6.9,3.8c1.7,1.9,4.1,3.7,6.8,3.7
	C184.1,149.9,186.5,148.1,188.2,146.2z"/>
<path class="st2" d="M158.2,183c-0.2-0.2-0.3-0.5-0.3-0.8c0-0.3,0-0.6,0-0.9c1.3-5,10.2-16.8,10.6-17.3c0.6-0.7,3.7-1.4,3.7-1.4
	l0.4,8.1l-8.1,9.5c-0.3,0.3-0.4,0.7-0.5,1.1c0,0.4,0,0.8,0.2,1.2l6.4,13l-3.4,0.9L158.2,183z"/>
<path class="st24" d="M187.5,191.6l10.3,6.3c0.6,0.4,1.1,1,1.4,1.7c0.3,0.7,0.4,1.5,0.2,2.2l-7.9,34.2h-3.9l2-33.3l-10.9-5.1
	L187.5,191.6z"/>
<path class="st2" d="M203.6,182.7c0.3-0.5,0.4-1,0.3-1.5c-1-4.9-9-16.7-9.4-17.2c-0.6-0.7-3.7-1.4-3.7-1.4l-0.4,8.1l7,9.3
	c0.2,0.3,0.4,0.7,0.4,1c0.1,0.4,0,0.8-0.1,1.1l-5.3,13.3l3.4,0.9L203.6,182.7z"/>
<path class="st10" d="M175.1,151.8c-0.2,0.7-0.6,1.6-1.3,1.8c-0.3,0-0.6,0-0.9-0.1c-0.3-0.1-0.6-0.2-0.8-0.4
	c-0.1-0.1-0.3-0.2-0.4-0.3c-0.1-0.1-0.2-0.3-0.2-0.4c0-0.3,0.1-0.6,0.2-0.8c0.5-1,1.1-1.9,1.8-2.8c0.6-0.7,1.8-1.9,2.5-0.7
	C176.5,148.9,175.4,150.9,175.1,151.8z"/>
<path class="st15" d="M172.1,195.6c0,0.6-0.2,1.1-0.5,1.6c-0.3,0.5-0.8,0.8-1.3,1c-0.5,0.2-1.1,0.3-1.6,0.2
	c-0.5-0.1-1.1-0.4-1.4-0.8s-0.7-0.9-0.8-1.4c-0.1-0.5-0.1-1.1,0.2-1.6c0.2-0.5,0.6-1,1-1.3c0.5-0.3,1-0.5,1.6-0.5
	c0.8,0,1.5,0.3,2,0.8C171.8,194.2,172.1,194.9,172.1,195.6z"/>
<path class="st2" d="M189,143.9c-1.2-3-7.6-4.1-7.7-4.1c-0.1,0-6.6,1-7.7,4.1c-1.2,3.1-4.6,11.6-4.5,14c0.1,2.3,4.4,4.7,4.4,4.7h3.9
	c0,0-5.8-3.9-6.4-5.7c-0.6-1.7,1.6-3.6,2.2-4.1c1.7-3,3.8-5.8,6.4-8.1c0.5-0.5,1.1-0.7,1.8-0.7c0.7,0,1.3,0.2,1.8,0.7
	c2.5,2.4,4.7,5.1,6.4,8.1c0.6,0.4,2.8,2.3,2.2,4.1c-0.6,1.7-5.8,5.6-5.8,5.6l3.3,0c0,0,4.2-2.3,4.4-4.7
	C193.6,155.5,190.2,146.9,189,143.9z"/>
<path class="st15" d="M196.8,196.1c0-0.6-0.1-1.1-0.4-1.6s-0.7-0.9-1.2-1.1c-0.5-0.2-1.1-0.3-1.6-0.3c-0.6,0.1-1.1,0.3-1.5,0.7
	c-0.4,0.4-0.7,0.9-0.9,1.4c-0.1,0.5-0.1,1.1,0.1,1.6c0.2,0.5,0.5,1,1,1.3c0.4,0.3,1,0.5,1.5,0.6c0.7,0,1.5-0.2,2-0.7
	C196.4,197.6,196.8,196.9,196.8,196.1L196.8,196.1z"/>
<path class="st9" d="M172.9,236l0.5,5c0,0-5.1,8.4-7.1,8.6c-2,0.2-1.1-3.3,0-4.9s3.4-5,3.4-5l0.9-3.6L172.9,236z"/>
<path class="st9" d="M188.3,236l-0.5,5c0,0,5.1,8.4,7.1,8.6c2,0.2,1.1-3.3,0-4.9s-3.4-5-3.4-5l-0.9-3.6L188.3,236z"/>
<path class="st13" d="M169,199h25.7c0.5,0,0.9-0.2,1.3-0.5c0.4-0.3,0.6-0.7,0.7-1.2l2.2-9.3c0.1-0.4,0.1-0.9-0.1-1.3
	c-0.1-0.4-0.3-0.8-0.6-1.1c-0.3-0.3-0.6-0.6-1-0.8c-0.4-0.2-0.8-0.3-1.2-0.3l-29.4,0.2c-0.4,0-0.9,0.1-1.2,0.3
	c-0.4,0.2-0.7,0.5-1,0.8c-0.3,0.3-0.5,0.7-0.6,1.1c-0.1,0.4-0.1,0.8,0,1.3l3.3,9.2c0.1,0.4,0.4,0.8,0.8,1
	C168.1,198.8,168.6,199,169,199L169,199z"/>
<linearGradient id="SVGID_7_" gradientUnits="userSpaceOnUse" x1="177.135" y1="110.449" x2="150.579" y2="109.087" gradientTransform="matrix(1 0 0 -1 0 302)">
	<stop  offset="0" style="stop-color:#484EC2;stop-opacity:0"/>
	<stop  offset="1" style="stop-color:#444BCC;stop-opacity:0.502"/>
</linearGradient>
<path class="st25" d="M184.7,184.7l-18.1,0.1c-0.4,0-0.9,0.1-1.2,0.3c-0.4,0.2-0.7,0.5-1,0.8c-0.3,0.3-0.5,0.7-0.6,1.1
	c-0.1,0.4-0.1,0.8,0,1.3l3.3,9.2c0.1,0.4,0.4,0.8,0.8,1c0.4,0.2,0.8,0.4,1.2,0.4h4.6L184.7,184.7z"/>
</svg>
